<?xml version="1.0" standalone="no"?>
<!DOCTYPE svg PUBLIC "-//W3C//DTD SVG 20010904//EN"
 "http://www.w3.org/TR/2001/REC-SVG-20010904/DTD/svg10.dtd">
<svg version="1.0" xmlns="http://www.w3.org/2000/svg"
 width="96.000000pt" height="96.000000pt" viewBox="0 0 96.000000 96.000000"
 preserveAspectRatio="xMidYMid meet">

<g transform="translate(0.000000,96.000000) scale(0.100000,-0.100000)"
fill="#000000" stroke="none">
<path d="M363 866 c-104 -34 -204 -123 -251 -224 -24 -50 -27 -69 -27 -162 0
-98 2 -110 32 -170 41 -83 110 -152 193 -193 60 -30 72 -32 170 -32 98 0 110
2 170 32 84 41 152 110 193 192 30 61 32 72 32 171 0 99 -2 110 -32 171 -40
81 -121 160 -200 197 -70 32 -210 41 -280 18z m262 -60 c76 -34 139 -97 178
-175 28 -58 32 -75 32 -151 0 -76 -4 -93 -32 -151 -39 -79 -102 -140 -181
-177 -82 -38 -202 -38 -284 0 -79 37 -142 98 -181 177 -29 59 -32 75 -32 151
0 70 5 95 27 141 85 185 295 267 473 185z"/>
<path d="M429 779 c-66 -10 -120 -41 -172 -99 -59 -65 -81 -130 -75 -219 11
-155 124 -268 279 -279 91 -6 154 16 223 79 69 63 98 127 98 219 1 120 -60
219 -165 269 -69 33 -120 41 -188 30z m75 -48 c27 -10 31 -48 7 -61 -30 -16
-71 4 -71 34 0 32 24 43 64 27z m-120 -31 c14 -5 26 -16 26 -25 0 -8 5 -15 11
-15 20 0 4 -33 -18 -36 -19 -3 -22 0 -19 24 2 15 1 20 -1 12 -3 -8 -14 -22
-24 -31 -21 -18 -25 -49 -9 -65 7 -7 -4 -11 -35 -11 -31 0 -42 4 -35 11 13 13
13 56 0 56 -5 0 -10 4 -10 9 0 5 9 7 20 4 11 -3 31 -2 46 1 23 6 26 11 22 41
-2 19 -3 35 -2 35 2 0 14 -4 28 -10z m206 -11 c0 -8 5 -7 15 1 19 15 42 -1 30
-20 -6 -9 -10 -9 -16 1 -6 10 -9 3 -9 -19 0 -42 -22 -39 -31 4 -4 16 -7 22 -8
15 -1 -11 -4 -12 -12 -4 -6 6 -8 16 -5 22 9 14 36 14 36 0z m110 -108 c0 -25
-3 -27 -45 -27 -50 -1 -53 2 -27 22 16 13 16 14 0 8 -20 -7 -25 12 -5 19 6 3
27 5 45 4 28 0 32 -4 32 -26z m17 -71 c-3 -10 0 -22 7 -25 8 -4 8 -6 0 -10 -7
-3 -9 -15 -6 -27 3 -14 1 -19 -6 -14 -7 4 -12 15 -13 24 0 13 -3 12 -11 -5
-13 -26 -33 -31 -24 -6 4 9 1 20 -6 25 -10 6 -10 10 1 17 7 5 10 14 7 20 -4 6
-2 11 4 11 6 0 13 -7 17 -17 5 -14 8 -13 14 5 10 27 23 29 16 2z m-420 -1 c6
-6 9 -18 6 -27 -5 -11 -3 -13 7 -7 8 5 11 3 8 -6 -3 -8 -11 -14 -19 -14 -8 0
-18 -6 -22 -12 -19 -30 -55 -7 -38 24 5 10 12 26 15 36 6 19 27 22 43 6z m33
-108 c17 -33 11 -41 -30 -41 -22 0 -40 5 -40 11 0 22 22 49 40 49 11 0 24 -9
30 -19z m347 7 c6 -7 13 -25 17 -39 5 -23 2 -27 -20 -32 -18 -3 -24 -1 -20 8
2 7 -2 12 -10 11 -8 -1 -14 -6 -13 -11 0 -4 -6 -12 -14 -17 -8 -4 -13 -16 -10
-26 6 -23 -19 -44 -42 -36 -11 5 -15 14 -12 31 3 15 -1 27 -9 30 -8 3 -11 9
-8 15 3 5 14 2 24 -7 18 -16 20 -16 41 3 16 15 20 29 17 51 -4 28 -2 31 23 31
14 0 31 -6 36 -12z m-259 -88 c2 -17 0 -21 -6 -12 -7 10 -11 10 -21 -2 -7 -8
-9 -21 -5 -27 5 -9 2 -10 -9 -6 -9 3 -19 2 -22 -3 -4 -6 -11 -10 -17 -10 -7 0
-7 5 1 14 6 7 8 22 4 32 -6 16 -4 17 9 6 21 -17 44 8 25 27 -10 10 -7 12 13 9
18 -2 26 -10 28 -28z m80 -42 c2 -16 8 -28 13 -28 5 0 9 -7 9 -15 0 -18 -9
-19 -33 0 -11 7 -25 11 -33 8 -10 -4 -14 4 -14 32 0 34 2 36 28 33 21 -2 28
-9 30 -30z"/>
<path d="M476 704 c-9 -22 3 -32 14 -14 12 19 12 30 1 30 -5 0 -12 -7 -15 -16z"/>
<path d="M307 590 c3 -11 7 -20 9 -20 2 0 4 9 4 20 0 11 -4 20 -9 20 -5 0 -7
-9 -4 -20z"/>
<path d="M262 489 c2 -6 8 -10 13 -10 5 0 11 4 13 10 2 6 -4 11 -13 11 -9 0
-15 -5 -13 -11z"/>
<path d="M290 403 c0 -5 5 -15 10 -23 8 -12 10 -11 10 8 0 12 -4 22 -10 22 -5
0 -10 -3 -10 -7z"/>
<path d="M570 290 c0 -5 5 -10 10 -10 6 0 10 5 10 10 0 6 -4 10 -10 10 -5 0
-10 -4 -10 -10z"/>
</g>
</svg>
